<svg version="1.1" id="Layer_1" xmlns="http://www.w3.org/2000/svg" xmlns:xlink="http://www.w3.org/1999/xlink" x="0px" y="0px"
	 width="100%" viewBox="0 0 496 496" enable-background="new 0 0 496 496" xml:space="preserve">
<path fill="#000000" opacity="1.000000" stroke="none" 
	d="
M233.444092,232.635742 
	C237.007385,233.068100 238.259827,230.861603 239.536942,228.649063 
	C243.014389,222.624725 246.512451,216.612289 250.480164,209.771347 
	C255.430115,216.372787 259.115814,222.706909 262.135864,229.446091 
	C262.362610,229.951996 262.161163,230.831329 261.857422,231.365845 
	C258.076996,238.018478 254.270477,244.656799 250.397171,251.255707 
	C249.471222,252.833237 247.828690,253.255020 246.067261,253.253098 
	C225.582596,253.230682 205.097931,253.220688 184.613342,253.168991 
	C183.852707,253.167084 183.093063,252.773071 182.463623,252.598099 
	C181.737442,250.455795 182.931396,249.124619 183.733032,247.726990 
	C197.650040,223.462662 211.643143,199.241638 225.450928,174.915375 
	C227.260559,171.727203 229.372787,170.525467 232.979294,170.560013 
	C238.050339,170.608597 243.215317,171.375198 248.511139,169.845932 
	C246.672729,164.505493 243.819290,160.007050 241.066376,155.495865 
	C239.387421,152.744598 239.194550,150.382294 241.019913,147.659393 
	C244.340790,142.705551 246.607773,137.086227 251.249557,131.265366 
	C274.586700,171.780975 297.575775,211.692322 321.103058,252.537994 
	C312.687927,253.779282 305.485687,253.507660 298.319641,252.918839 
	C296.451569,252.765335 295.751068,250.454132 294.850372,248.887878 
	C281.322784,225.364868 267.821075,201.826981 254.302338,178.298874 
	C253.409393,176.744797 252.817184,174.940857 250.330521,173.641968 
	C239.309433,192.858658 228.293961,212.065552 216.809555,232.090103 
	C222.851379,233.103775 227.955978,232.486389 233.444092,232.635742 
z"/>
<path fill="#000000" opacity="1.000000" stroke="none" 
	d="
M187.625061,279.690704 
	C199.092392,281.972717 204.303650,289.845001 201.806427,300.450165 
	C199.589005,309.867004 189.457321,315.556885 179.537643,313.018127 
	C177.294632,312.444061 176.099426,311.254578 176.107803,308.850189 
	C176.137451,300.357788 176.126526,291.865173 176.095673,283.372742 
	C176.085480,280.565582 177.549362,279.564453 180.183228,279.659149 
	C182.511154,279.742889 184.844498,279.675507 187.625061,279.690704 
M194.539658,298.860168 
	C194.780640,291.999390 193.121292,288.547089 188.786850,286.968140 
	C185.467056,285.758820 183.238510,286.211639 183.337936,290.460327 
	C183.419113,293.929413 183.261993,297.404938 183.378967,300.871948 
	C183.442200,302.746155 182.493835,305.253632 184.794128,306.221588 
	C187.320328,307.284546 189.598755,305.804688 191.578323,304.237183 
	C193.054855,303.068024 193.716080,301.333679 194.539658,298.860168 
z"/>
<path fill="#000000" opacity="1.000000" stroke="none" 
	d="
M268.276031,307.088593 
	C268.378662,310.274506 268.063995,312.408325 264.374023,312.365051 
	C260.540161,312.320129 260.701660,309.887695 260.702545,307.321350 
	C260.705170,299.683533 260.796021,292.044067 260.660095,284.408661 
	C260.601105,281.093597 261.671936,279.415039 265.214874,279.635071 
	C268.192474,279.819977 271.225067,279.442017 274.166351,279.826050 
	C281.894470,280.835175 286.007904,289.019806 281.351746,294.951141 
	C278.594421,298.463593 279.066223,300.978455 280.912872,304.240936 
	C282.198364,306.511902 283.142242,308.976196 284.260162,311.400543 
	C277.431274,313.437622 276.917603,313.134613 274.207153,307.260651 
	C273.094604,304.849548 272.711090,301.808350 269.783783,300.501984 
	C267.405060,302.306396 268.665436,304.660431 268.276031,307.088593 
M268.820160,287.494629 
	C268.543762,289.921173 266.727570,292.951172 270.885956,293.785522 
	C272.562500,294.121857 274.202026,293.422516 275.145233,291.824799 
	C275.866119,290.603668 275.933014,289.220734 275.063965,288.073669 
	C273.532257,286.051880 271.516174,285.889282 268.820160,287.494629 
z"/>
<path fill="#000000" opacity="1.000000" stroke="none" 
	d="
M341.691650,293.011169 
	C341.700562,289.520447 341.773956,286.525940 341.700348,283.535095 
	C341.631622,280.741272 342.954590,279.708527 345.656616,279.746826 
	C348.220856,279.783173 349.270294,280.975708 349.221191,283.421112 
	C349.194489,284.750397 349.288330,286.082733 349.243256,287.410828 
	C349.144745,290.313660 349.357513,292.726837 353.342804,292.616974 
	C356.890045,292.519226 359.194977,291.606903 358.848175,287.486664 
	C358.723267,286.002716 358.848175,284.495941 358.888428,283.000366 
	C358.959229,280.368744 360.560608,279.711365 362.892365,279.754181 
	C365.130707,279.795288 366.293121,280.696869 366.289093,283.018280 
	C366.274078,291.664276 366.263275,300.310486 366.312744,308.956268 
	C366.327789,311.584930 365.000366,312.388184 362.575958,312.357574 
	C360.125549,312.326569 358.824829,311.351471 358.854095,308.822388 
	C358.867554,307.658936 358.796783,306.493835 358.831146,305.331421 
	C358.929077,302.018280 359.119690,299.129425 354.140045,299.181519 
	C349.420990,299.230896 349.295044,301.748444 349.154236,305.244141 
	C349.054504,307.720490 350.789215,311.334961 346.572327,312.212128 
	C343.816132,312.785461 341.625366,312.089020 341.697693,308.473053 
	C341.797363,303.487030 341.703186,298.497192 341.691650,293.011169 
z"/>
<path fill="#000000" opacity="1.000000" stroke="none" 
	d="
M241.022171,298.125580 
	C242.641037,302.815155 244.122894,307.139557 245.716415,311.789825 
	C241.289185,312.589172 238.002182,313.252228 236.291473,308.302094 
	C235.011917,304.599548 231.126343,306.260529 228.369659,305.719788 
	C225.920898,305.239441 225.219589,307.166534 224.793961,308.980896 
	C223.592834,314.101196 220.077560,312.228943 216.910004,311.944611 
	C216.121552,308.851715 217.911346,306.594208 218.709625,304.173950 
	C220.996796,297.239471 223.528625,290.385986 225.927887,283.488007 
	C226.685165,281.310852 227.640701,279.681183 230.410843,279.689545 
	C233.116501,279.697632 234.667877,280.584167 235.549515,283.276550 
	C237.149582,288.162964 239.087967,292.938568 241.022171,298.125580 
M229.004501,297.954498 
	C230.190689,298.934967 231.659912,299.071991 232.296371,297.717407 
	C233.207291,295.778687 232.044098,294.068665 230.755585,292.447357 
	C229.341064,293.904633 229.094849,295.650146 229.004501,297.954498 
z"/>
<path fill="#000000" opacity="1.000000" stroke="none" 
	d="
M300.663635,286.006165 
	C304.232971,279.867340 313.429871,277.472107 319.026184,280.890747 
	C322.560547,283.049805 321.165405,285.831757 320.178741,288.920685 
	C317.066559,288.028534 314.632751,285.919952 311.480316,286.300171 
	C309.733032,286.510864 307.974762,286.788452 307.729706,288.824890 
	C307.505646,290.686981 309.110718,291.318451 310.597443,291.697998 
	C312.524261,292.189880 314.505280,292.471680 316.428009,292.976990 
	C320.926270,294.159210 323.809814,297.035858 323.986908,301.726990 
	C324.156067,306.207336 322.125671,309.764038 317.860748,311.713104 
	C312.840515,314.007355 307.769775,313.601776 302.864563,311.513428 
	C298.358002,309.594849 299.877716,306.047760 300.634888,302.726440 
	C302.705505,302.413483 303.456543,304.045044 304.699707,304.713043 
	C307.790802,306.374084 310.922699,306.970581 314.240356,305.494293 
	C315.534363,304.918457 316.553741,304.009247 316.435120,302.492523 
	C316.331604,301.169250 315.275574,300.527710 314.072845,300.252777 
	C312.460815,299.884247 310.835114,299.570007 309.207001,299.278564 
	C302.051880,297.997559 299.154663,293.686615 300.663635,286.006165 
z"/>
<path fill="#000000" opacity="1.000000" stroke="none" 
	d="
M145.977325,279.750580 
	C148.261108,279.679779 149.563110,280.394501 150.225159,282.246704 
	C153.467239,291.317261 156.756714,300.370850 159.983978,309.446625 
	C160.189423,310.024414 160.010696,310.738861 160.010696,311.586304 
	C156.159348,312.766968 152.998779,313.286652 151.308136,308.311096 
	C150.102844,304.763947 146.529175,306.202362 143.880981,305.858551 
	C142.053833,305.621307 140.520355,306.036804 140.115311,308.148987 
	C139.101120,313.437561 135.596268,312.744537 131.035172,311.704712 
	C134.399078,302.201904 137.660934,293.048523 140.870728,283.876923 
	C141.675797,281.576508 142.488144,279.414978 145.977325,279.750580 
M144.295029,295.033569 
	C144.168716,296.215820 142.774155,297.619476 144.703873,298.457428 
	C145.634476,298.861481 146.906067,298.786682 147.315613,297.722565 
	C148.117630,295.638763 146.902161,294.109039 145.537933,292.277252 
	C145.036148,293.290222 144.746201,293.875580 144.295029,295.033569 
z"/>
<path fill="#000000" opacity="1.000000" stroke="none" 
	d="
M281.351501,349.610382 
	C282.104034,351.471558 282.721283,352.990356 283.320862,354.465607 
	C281.753052,355.651855 280.340332,355.454498 278.641327,354.783203 
	C278.204102,352.731384 279.106384,349.323822 275.356995,349.514191 
	C272.100739,349.679535 272.547485,352.574860 272.549530,354.448334 
	C265.272675,358.329285 262.315216,353.710175 260.272491,348.046570 
	C256.846710,350.304291 259.317413,352.727997 258.874176,354.788696 
	C257.396606,355.587738 256.014191,355.519653 254.561325,354.594849 
	C254.561325,349.336700 254.561325,344.063690 254.561325,338.731506 
	C257.165436,337.288452 259.749054,337.405029 262.313446,338.315918 
	C265.428894,339.422516 267.054321,341.373322 265.491180,344.818817 
	C265.285278,345.272705 264.953674,345.690704 264.843384,346.163391 
	C264.184204,348.987762 264.785828,351.984894 267.301575,353.016510 
	C270.238708,354.220978 270.300049,350.760803 271.148407,349.028259 
	C272.801453,345.652466 273.581207,341.849854 276.205566,338.434448 
	C279.163940,341.709320 279.293427,345.928772 281.351501,349.610382 
M262.208252,343.893555 
	C263.070007,341.296204 261.764893,340.335266 259.197632,339.971375 
	C258.204498,341.683319 257.690582,343.420227 258.940460,344.981354 
	C259.858673,346.128204 260.995697,345.309540 262.208252,343.893555 
z"/>
<path fill="#000000" opacity="1.000000" stroke="none" 
	d="
M250.414261,338.607635 
	C250.186798,342.733521 249.689850,346.517914 249.411758,350.318329 
	C249.151932,353.868988 247.476852,356.103668 243.862320,355.980804 
	C240.250504,355.858002 238.059769,353.686371 237.708908,350.003448 
	C237.349548,346.231110 238.202744,342.381531 236.873413,338.664825 
	C238.376938,337.345215 240.025330,337.722198 242.088516,337.835449 
	C241.000168,341.581177 241.234390,345.318176 241.273438,349.047058 
	C241.295471,351.151672 241.577896,353.391876 244.300003,353.245361 
	C246.654877,353.118591 247.583282,351.170715 247.621429,348.973297 
	C247.681549,345.509766 248.005280,342.024109 246.999725,338.689270 
	C248.048935,337.522949 249.126953,337.731262 250.414261,338.607635 
z"/>
<path fill="#000000" opacity="1.000000" stroke="none" 
	d="
M209.560150,353.359375 
	C214.533981,354.110535 213.684494,351.213745 213.008621,348.489777 
	C214.402267,347.356262 215.783829,347.591858 217.180389,348.215149 
	C218.235138,354.395966 216.891724,355.501251 211.358887,355.967865 
	C206.841095,356.348938 203.040909,351.914948 203.121262,347.132660 
	C203.218704,341.333313 206.901489,337.146942 211.757568,337.778564 
	C214.588028,338.146759 218.659836,338.012970 216.917053,343.123047 
	C216.545395,343.140076 216.119781,343.287537 215.975998,343.146881 
	C213.974548,341.189026 212.508179,337.502625 208.849670,340.739899 
	C205.567398,343.644318 205.803894,349.016724 209.560150,353.359375 
z"/>
<path fill="#000000" opacity="1.000000" stroke="none" 
	d="
M223.215485,355.326874 
	C221.731949,355.174957 219.544128,355.515381 220.430756,353.488953 
	C222.583435,348.569031 223.519302,343.065552 227.435028,337.676636 
	C230.050369,343.907959 232.294907,349.255829 234.540451,354.606079 
	C233.079590,355.884003 231.656891,355.361359 230.337921,355.029114 
	C229.218552,354.229004 229.798325,353.127563 229.605621,352.206787 
	C229.217285,350.351166 228.284180,349.077057 226.199524,349.496338 
	C224.257111,349.886993 223.435486,351.216309 223.879013,353.171722 
	C224.059357,353.966797 224.571045,354.734833 223.215485,355.326874 
z"/>
<path fill="#000000" opacity="1.000000" stroke="none" 
	d="
M291.370422,354.403534 
	C288.924133,349.025238 286.762390,343.869324 284.634705,338.794617 
	C286.353485,337.462250 287.823181,337.701813 289.643524,337.926453 
	C289.215332,341.901459 290.510956,345.423584 292.891510,349.418732 
	C294.576111,345.368958 296.830902,342.267792 295.548584,338.330719 
	C296.982941,337.704254 298.067261,337.562347 299.516327,338.979340 
	C296.468811,343.860352 296.841736,350.519196 291.370422,354.403534 
z"/>
</svg>